<svg width="9" height="30" viewBox="0 0 9 30" fill="none" xmlns="http://www.w3.org/2000/svg">
<path d="M8.99995 4.61477C8.99995 2.34228 7.15772 0.500053 4.88523 0.500053C2.61273 0.500053 0.770508 2.34228 0.770508 4.61477C0.770508 6.88727 2.61273 8.72949 4.88523 8.72949C7.15772 8.72949 8.99995 6.88727 8.99995 4.61477Z" fill="#99A1BE"/>
<path d="M8.99995 14.8999C8.99995 12.6274 7.15772 10.7852 4.88523 10.7852C2.61273 10.7852 0.770508 12.6274 0.770508 14.8999C0.770508 17.1724 2.61273 19.0146 4.88523 19.0146C7.15772 19.0146 8.99995 17.1724 8.99995 14.8999Z" fill="#99A1BE"/>
<path d="M8.99995 25.1853C8.99995 22.9128 7.15772 21.0706 4.88523 21.0706C2.61273 21.0706 0.770508 22.9128 0.770508 25.1853C0.770508 27.4578 2.61273 29.3 4.88523 29.3C7.15772 29.3 8.99995 27.4578 8.99995 25.1853Z" fill="#99A1BE"/>
</svg>
