<svg width="30" height="31" viewBox="0 0 30 31" fill="none" xmlns="http://www.w3.org/2000/svg">
<path d="M14.5294 0.5C11.6616 0.5 8.85817 1.37973 6.47366 3.02796C4.08914 4.67618 2.23064 7.01886 1.13317 9.75975C0.0357016 12.5006 -0.251447 15.5166 0.308039 18.4263C0.867524 21.3361 2.24852 24.0088 4.27638 26.1066C6.30424 28.2044 8.88789 29.633 11.7006 30.2118C14.5133 30.7906 17.4288 30.4935 20.0783 29.3582C22.7279 28.2229 24.9924 26.3003 26.5857 23.8335C28.179 21.3668 29.0294 18.4667 29.0294 15.5C29.0248 11.5232 27.4957 7.71065 24.7774 4.89863C22.0591 2.08661 18.3737 0.504738 14.5294 0.5ZM25.9892 20.4503C25.2778 22.2018 24.2013 23.7693 22.8366 25.0408C21.472 26.3122 19.8527 27.2563 18.0946 27.8055C18.158 27.6822 18.2196 27.5579 18.2792 27.4326C18.5469 26.8294 18.948 26.2999 19.4502 25.8869C19.8627 25.5408 20.6761 24.9917 20.5434 24.3293C20.4483 23.84 19.9089 23.64 19.5022 23.5207C18.8465 23.3506 18.1758 23.2506 17.5004 23.2223C16.9198 23.2188 16.3406 23.1619 15.7697 23.0522C14.9275 22.8314 14.7371 22.0765 14.6823 21.2798C14.7061 20.5636 14.5781 19.8507 14.3073 19.1911C14.0475 18.8278 13.7068 18.5347 13.3141 18.3368C12.9214 18.1389 12.4884 18.042 12.0517 18.0542C11.3537 17.9886 10.6556 18.0244 9.96338 17.902C9.31477 17.7208 8.6497 17.6098 7.9789 17.5708C7.09049 17.6066 6.69244 18.2303 6.3117 18.9494C5.76334 20.2733 5.06836 21.527 4.24068 22.6852C3.01003 20.8081 2.28521 18.6255 2.14082 16.3623C2.24043 16.3334 2.33705 16.2945 2.42927 16.246C2.81578 16.049 3.08691 15.688 3.50516 15.5477C3.94501 15.4686 4.39547 15.4777 4.83199 15.5746C5.23919 15.6328 5.65155 15.6418 6.06075 15.6014C6.42397 15.5544 6.76 15.378 7.01109 15.1024C7.26218 14.8269 7.41264 14.4695 7.43663 14.0916C7.47891 13.6055 7.48951 13.1171 7.46835 12.6295C7.49143 11.8686 7.97313 11.5941 8.63943 11.5314C9.89704 11.4091 12.8276 11.7552 12.8882 9.7411C12.9141 8.88472 11.9277 8.44311 11.2873 8.21633C10.001 7.94899 8.70225 7.7498 7.39624 7.61955C6.72661 7.42658 6.12545 7.03686 5.66559 6.49761C7.07929 5.00658 8.82347 3.89508 10.7467 3.25964C12.6699 2.6242 14.7139 2.48403 16.7014 2.8513C16.3379 2.91375 15.9813 3.01371 15.637 3.14969C15.2559 3.34939 14.9208 3.63171 14.6546 3.97743C14.3884 4.32316 14.1973 4.72416 14.0944 5.15314C13.9915 5.58213 13.9791 6.02901 14.0582 6.46338C14.1372 6.89774 14.3058 7.30939 14.5525 7.67028C15.0873 8.65899 15.8152 9.52173 16.6899 10.2036C17.5077 10.8109 18.3765 11.3412 19.2858 11.788C20.48 12.4684 20.3358 14.2408 20.6386 15.4344C20.7419 15.9308 20.9636 16.3926 21.2835 16.7778C21.6034 17.1629 22.0114 17.4591 22.4702 17.6394C23.0471 17.8513 23.7365 17.6872 24.247 18.1049C24.6855 18.466 24.7893 19.2 25.0403 19.6953C25.1187 19.8975 25.2481 20.0742 25.415 20.207C25.5819 20.3397 25.7802 20.4238 25.9892 20.4503Z" fill="#99A1BE"/>
</svg>
