<svg width="53" height="53" viewBox="0 0 53 53" fill="none" xmlns="http://www.w3.org/2000/svg">
<g filter="url(#filter0_d_7_215)">
<path d="M23.7216 44.9784C35.4734 44.9784 45 35.4518 45 23.7C45 11.9483 35.4734 2.42163 23.7216 2.42163C11.9699 2.42163 2.44324 11.9483 2.44324 23.7C2.44324 35.4518 11.9699 44.9784 23.7216 44.9784Z" fill="url(#paint0_linear_7_215)"/>
<mask id="mask0_7_215" style="mask-type:luminance" maskUnits="userSpaceOnUse" x="2" y="2" width="43" height="43">
<path d="M23.7216 44.9784C35.4734 44.9784 45 35.4518 45 23.7C45 11.9483 35.4734 2.42163 23.7216 2.42163C11.9699 2.42163 2.44324 11.9483 2.44324 23.7C2.44324 35.4518 11.9699 44.9784 23.7216 44.9784Z" fill="white"/>
</mask>
<g mask="url(#mask0_7_215)">
<path style="mix-blend-mode:screen" opacity="0.9" d="M6.63821 32.8155C4.4995 28.7058 3.88631 23.9712 4.90735 19.4522C5.92839 14.9332 8.51757 10.9222 12.2155 8.13121C15.9133 5.34024 20.4806 3.94988 25.1064 4.20696C29.7321 4.46405 34.1173 6.35194 37.4831 9.53548C30.521 9.579 23.7588 11.868 18.2017 16.0622C12.6445 20.2565 8.58893 26.1321 6.63821 32.8155Z" fill="url(#paint1_linear_7_215)"/>
<path style="mix-blend-mode:screen" d="M41.993 14.681C39.2307 10.1895 34.8447 6.93448 29.7457 5.5916C24.6467 4.24873 19.2263 4.92121 14.6101 7.46946C9.9938 10.0177 6.53619 14.2459 4.95527 19.2762C3.37435 24.3066 3.79152 29.7525 6.12011 34.4834C4.6666 32.12 3.70768 29.4862 3.30146 26.7415C2.89524 23.9968 3.05012 21.1983 3.75673 18.5152C4.46335 15.8321 5.70726 13.3203 7.41269 11.1317C9.11813 8.94315 11.2496 7.12336 13.6787 5.78247C16.1078 4.44159 18.7839 3.60746 21.5446 3.33062C24.3054 3.05378 27.0935 3.34 29.7404 4.17188C32.3874 5.00375 34.8379 6.36403 36.9439 8.17039C39.05 9.97675 40.7677 12.1916 41.993 14.681Z" fill="url(#paint2_linear_7_215)"/>
</g>
<path d="M14.8971 22.0344C13.5547 22.0753 12.2742 22.6091 11.3003 23.5338C10.3265 24.4586 9.72721 25.7095 9.61694 27.048C10.4388 27.4503 11.3447 27.6509 12.2595 27.6333C13.1744 27.6158 14.0719 27.3807 14.8778 26.9472C15.029 26.8488 15.8113 26.3928 16.3177 27.024C17.4145 28.3944 15.5451 29.184 14.7459 29.5104C14.2227 29.7288 14.6665 30.0287 14.7049 30.0383C16.1141 30.083 17.5174 30.2436 18.9002 30.5184C19.2856 30.667 19.6233 30.9178 19.877 31.2438C20.1307 31.5697 20.2907 31.9587 20.3402 32.3688C20.3027 33.2981 19.9649 34.1903 19.3772 34.9113C18.7895 35.6322 17.9836 36.1431 17.0809 36.3672C15.5109 36.5857 13.9117 36.3142 12.5018 35.5896C13.9281 37.1245 15.4342 38.5833 17.0138 39.96C18.293 41.0568 18.3962 41.1456 19.4138 41.9616C20.9935 41.1557 22.6177 40.4401 24.2786 39.8184C23.8839 39.3361 23.6318 38.7533 23.5508 38.1354C23.4698 37.5175 23.563 36.8893 23.8201 36.3216C23.9433 36.1888 24.0916 36.0816 24.2563 36.0063C24.421 35.9309 24.5991 35.8887 24.7801 35.8823C25.9999 35.849 27.1999 35.5656 28.3057 35.0496C25.8577 35.3616 25.205 34.1904 25.6898 33.6096C26.1146 33.0888 27.3337 33.1152 27.9193 33.204C29.0304 33.3904 30.167 33.3618 31.2673 33.1199C32.8873 27.9383 27.5137 23.8392 22.4185 26.3736C21.7021 27.0125 20.8028 27.4096 19.848 27.5088C18.8932 27.608 17.9315 27.4042 17.0991 26.9263C16.2666 26.4483 15.6057 25.7205 15.21 24.8459C14.8143 23.9713 14.7039 22.9944 14.8945 22.0536" fill="url(#paint3_linear_7_215)"/>
<path d="M7.80733 24.3649C4.32013 27.1873 8.7937 35.7362 15.4585 36.425C19.5385 36.8474 21.2018 32.9426 19.8938 31.2602C19.6805 30.9812 19.4049 30.7559 19.089 30.6025C18.7731 30.4491 18.4256 30.3719 18.0744 30.3769C16.9462 30.3695 15.8211 30.2555 14.7144 30.0362C14.6706 30.0252 14.6303 30.0036 14.5969 29.9733C14.5634 29.9431 14.5379 29.9051 14.5225 29.8627C14.5071 29.8204 14.5024 29.7748 14.5087 29.7302C14.515 29.6855 14.532 29.6431 14.5585 29.6065C15.0913 29.0593 16.0297 29.189 16.4593 28.4666C16.5891 28.2052 16.6327 27.9092 16.5835 27.6215C16.5343 27.3338 16.395 27.0691 16.1856 26.8657C15.6744 26.4337 14.8824 26.9473 14.8488 26.9689C14.2389 27.3693 13.5435 27.6207 12.8186 27.7028C12.0936 27.785 11.3596 27.6957 10.6755 27.4421C9.99143 27.1885 9.3766 26.7776 8.88047 26.2427C8.38435 25.7078 8.02086 25.0637 7.81934 24.3625" fill="url(#paint4_linear_7_215)"/>
<path d="M39.8855 24.0386C38.6855 28.4642 34.1903 34.2289 27.9239 33.1921C26.9903 33.0385 25.3367 33.1705 25.5575 34.1905C25.7087 34.8841 26.9977 35.2825 28.3273 35.0425C27.2173 35.565 26.011 35.8518 24.7847 35.8849C24.5456 35.8914 24.3126 35.9615 24.1097 36.0881C23.9068 36.2147 23.7414 36.393 23.6304 36.6049C23.448 36.9697 23.1647 39.9217 25.5335 40.5985C28.7399 41.5105 33.6935 38.0617 36.1847 35.3185C41.3183 29.6737 40.6799 25.2194 40.2479 24.4202C40.1737 24.2568 40.0458 24.1238 39.8855 24.0433" fill="url(#paint5_linear_7_215)"/>
<path d="M29.0641 18.9312H18.684C19.325 19.681 20.1209 20.283 21.0169 20.6958C21.9128 21.1086 22.8874 21.3223 23.8739 21.3223C24.8604 21.3223 25.8353 21.1086 26.7312 20.6958C27.6272 20.283 28.4231 19.681 29.0641 18.9312Z" fill="url(#paint6_linear_7_215)"/>
<path d="M16.6707 11.8513C14.1843 12.0073 13.0488 15.7705 14.58 16.9969C16.1112 18.2233 18.5931 16.0753 18.3339 13.6825C18.3414 13.223 18.1735 12.7779 17.8645 12.4378C17.5556 12.0976 17.1288 11.8879 16.6707 11.8513Z" fill="#27304E"/>
<path d="M30.4585 11.8513C28.2985 11.9881 28.2314 15.1777 29.8898 16.6825C30.1633 17.0162 30.541 17.248 30.9624 17.3405C31.3838 17.4331 31.824 17.381 32.2122 17.1927C32.6004 17.0045 32.914 16.691 33.1022 16.3028C33.2904 15.9145 33.3422 15.4742 33.2496 15.0529C33.2241 14.2791 32.9322 13.5378 32.4231 12.9544C31.9141 12.371 31.2217 11.9814 30.4585 11.8513Z" fill="#27304E"/>
<path d="M19.4521 8.36401C15.4609 8.47201 13.3729 10.332 14.0425 10.9656C14.0945 11.006 14.155 11.0341 14.2194 11.0478C14.2838 11.0615 14.3506 11.0605 14.4145 11.0448C14.5529 11.0128 14.6823 10.9505 14.7936 10.8625C15.4407 10.4311 16.1591 10.1174 16.9153 9.93601C17.8228 9.71234 18.7596 9.63136 19.6921 9.696C19.7879 9.70527 19.8847 9.69719 19.9777 9.67205C20.1556 9.62654 20.3135 9.52347 20.4268 9.37893C20.5401 9.23439 20.6024 9.05647 20.6041 8.87283C20.5777 8.35203 20.1529 8.35683 19.4521 8.36643" fill="#D97700"/>
<path d="M27.7107 8.36401C25.7379 8.36401 26.7913 9.45841 26.8033 9.47041C26.9047 9.56521 27.0275 9.6343 27.1611 9.67197C27.254 9.69754 27.3508 9.70571 27.4467 9.696C28.2541 9.64617 29.0645 9.69859 29.8587 9.852C30.7498 10.0189 31.5983 10.3624 32.3545 10.8624C32.474 10.9573 32.6149 11.0216 32.765 11.0496C32.8236 11.0651 32.8852 11.0659 32.9443 11.0519C33.0033 11.038 33.0581 11.0098 33.1036 10.9697C33.1492 10.9296 33.184 10.8789 33.2053 10.8221C33.2266 10.7653 33.2337 10.7041 33.2258 10.644C33.1754 9.54717 30.3916 8.39761 27.706 8.36401" fill="#D97700"/>
</g>
<defs>
<filter id="filter0_d_7_215" x="0.0432372" y="0.0216308" width="52.1568" height="52.1569" filterUnits="userSpaceOnUse" color-interpolation-filters="sRGB">
<feFlood flood-opacity="0" result="BackgroundImageFix"/>
<feColorMatrix in="SourceAlpha" type="matrix" values="0 0 0 0 0 0 0 0 0 0 0 0 0 0 0 0 0 0 127 0" result="hardAlpha"/>
<feOffset dx="2.4" dy="2.4"/>
<feGaussianBlur stdDeviation="2.4"/>
<feComposite in2="hardAlpha" operator="out"/>
<feColorMatrix type="matrix" values="0 0 0 0 0.470833 0 0 0 0 0.470833 0 0 0 0 0.470833 0 0 0 0.5 0"/>
<feBlend mode="multiply" in2="BackgroundImageFix" result="effect1_dropShadow_7_215"/>
<feBlend mode="normal" in="SourceGraphic" in2="effect1_dropShadow_7_215" result="shape"/>
</filter>
<linearGradient id="paint0_linear_7_215" x1="12.7845" y1="4.29413" x2="34.7864" y2="43.3613" gradientUnits="userSpaceOnUse">
<stop stop-color="#FFFDF1"/>
<stop offset="0.201" stop-color="#FFEB72"/>
<stop offset="0.753" stop-color="#F69B32"/>
<stop offset="1" stop-color="#ED6C12"/>
</linearGradient>
<linearGradient id="paint1_linear_7_215" x1="11.9957" y1="8.2721" x2="19.1008" y2="20.4187" gradientUnits="userSpaceOnUse">
<stop stop-color="white"/>
<stop offset="1" stop-color="#231F20"/>
</linearGradient>
<linearGradient id="paint2_linear_7_215" x1="35.0276" y1="5.00981" x2="9.26192" y2="33.5411" gradientUnits="userSpaceOnUse">
<stop stop-color="#231F20"/>
<stop offset="0.536" stop-color="white"/>
<stop offset="1" stop-color="#231F20"/>
</linearGradient>
<linearGradient id="paint3_linear_7_215" x1="19.3822" y1="20.7392" x2="21.9597" y2="41.848" gradientUnits="userSpaceOnUse">
<stop stop-color="#F15B5A"/>
<stop offset="1" stop-color="#DB2A37"/>
</linearGradient>
<linearGradient id="paint4_linear_7_215" x1="6.64736" y1="25.0277" x2="16.4746" y2="35.5464" gradientUnits="userSpaceOnUse">
<stop stop-color="#FFEB72"/>
<stop offset="0.996" stop-color="#F69B32"/>
</linearGradient>
<linearGradient id="paint5_linear_7_215" x1="23.5133" y1="32.3933" x2="40.5311" y2="32.3933" gradientUnits="userSpaceOnUse">
<stop stop-color="#FFEB72"/>
<stop offset="0.996" stop-color="#F69B32"/>
</linearGradient>
<linearGradient id="paint6_linear_7_215" x1="23.874" y1="18.7542" x2="23.8724" y2="21.0234" gradientUnits="userSpaceOnUse">
<stop stop-color="#4B2313"/>
<stop offset="0.382" stop-color="#6B311A"/>
<stop offset="0.771" stop-color="#863E21"/>
<stop offset="1" stop-color="#914324"/>
</linearGradient>
</defs>
</svg>
