<svg width="97" height="97" viewBox="0 0 97 97" fill="none" xmlns="http://www.w3.org/2000/svg">
<path d="M48.4294 96.7C74.9391 96.7 96.4294 75.2096 96.4294 48.7C96.4294 22.1903 74.9391 0.699951 48.4294 0.699951C21.9198 0.699951 0.429443 22.1903 0.429443 48.7C0.429443 75.2096 21.9198 96.7 48.4294 96.7Z" fill="#C3E4FF" fill-opacity="0.28"/>
<path fill-rule="evenodd" clip-rule="evenodd" d="M60.3115 60.5151C58.0337 62.7068 55.2119 64.2504 52.1377 64.9863C50.3911 65.4508 48.5691 65.5604 46.7794 65.3087C44.9897 65.057 43.2686 64.4491 41.7179 63.5208L41.3471 63.2935L41.2603 63.2457C41.2353 63.2351 41.2092 63.2271 41.1826 63.2217C41.1528 63.2185 41.1227 63.2185 41.0928 63.2217H41.0241L40.6921 63.3055H40.6502C39.7051 63.5507 38.9365 63.7481 38.3204 63.8648C37.7319 64.0008 37.1226 64.0222 36.526 63.9276C35.7013 63.7596 34.9443 63.3528 34.3492 62.7577C33.7541 62.1626 33.3472 61.4056 33.1793 60.5809C33.0844 59.9843 33.1057 59.375 33.2421 58.7864C33.3588 58.1674 33.5561 57.4017 33.8014 56.4566V56.4148C33.8433 56.2533 33.8672 56.1546 33.8851 56.0828C33.9031 56.011 33.8851 56.011 33.8851 56.011C33.8947 55.955 33.8863 55.8975 33.8612 55.8465C33.8612 55.8465 33.8462 55.8166 33.8133 55.7598C33.7804 55.703 33.6967 55.5654 33.586 55.3919C32.6523 53.8552 32.0361 52.147 31.7736 50.3681C31.5111 48.5893 31.6077 46.7758 32.0578 45.035C32.8065 41.9328 34.3803 39.0909 36.6127 36.8104C39.7561 33.6665 44.0197 31.9002 48.4655 31.8999C52.9113 31.8996 57.1751 33.6654 60.3189 36.8089C63.4628 39.9523 65.2291 44.2159 65.2294 48.6617C65.2297 53.1075 63.4639 57.3713 60.3204 60.5151H60.3115Z" fill="#1877F2"/>
<path d="M55.0388 51.3008C56.4924 51.3008 57.6707 50.1225 57.6707 48.669C57.6707 47.2154 56.4924 46.0371 55.0388 46.0371C53.5853 46.0371 52.407 47.2154 52.407 48.669C52.407 50.1225 53.5853 51.3008 55.0388 51.3008Z" fill="#EFF8FF"/>
<path d="M48.4591 51.3008C49.9127 51.3008 51.091 50.1225 51.091 48.669C51.091 47.2154 49.9127 46.0371 48.4591 46.0371C47.0056 46.0371 45.8273 47.2154 45.8273 48.669C45.8273 50.1225 47.0056 51.3008 48.4591 51.3008Z" fill="#EFF8FF"/>
<path d="M41.8794 51.3008C43.333 51.3008 44.5113 50.1225 44.5113 48.669C44.5113 47.2154 43.333 46.0371 41.8794 46.0371C40.4259 46.0371 39.2476 47.2154 39.2476 48.669C39.2476 50.1225 40.4259 51.3008 41.8794 51.3008Z" fill="#EFF8FF"/>
</svg>
