<svg width="70" height="73" viewBox="0 0 70 73" fill="none" xmlns="http://www.w3.org/2000/svg">
<path fill-rule="evenodd" clip-rule="evenodd" d="M44.5954 53.2653H24.6383C23.2175 53.2653 22.0643 52.1122 22.0643 50.6913C22.0643 49.2705 23.2175 48.1173 24.6383 48.1173H44.5954C46.0163 48.1173 47.1694 49.2705 47.1694 50.6913C47.1694 52.1122 46.0163 53.2653 44.5954 53.2653ZM59.4937 16.4502C58.2479 15.352 56.8305 14.1096 55.1419 12.5481C54.3766 11.9303 53.5392 11.2233 52.6503 10.4751C47.6396 6.25034 40.7756 0.463989 34.5191 0.463989C28.3346 0.463989 21.9133 5.92773 16.755 10.3173C15.8009 11.1272 14.9086 11.8891 13.9991 12.627C12.3998 14.1096 10.9824 15.3554 9.73315 16.4571C1.54097 23.6677 0 25.5588 0 42.379C0 72.536 8.72071 72.536 34.6152 72.536C60.5062 72.536 69.2303 72.536 69.2303 42.379C69.2303 25.5553 67.6893 23.6643 59.4937 16.4502Z" fill="#CFD7ED"/>
</svg>
