<svg width="54" height="53" viewBox="0 0 54 53" fill="none" xmlns="http://www.w3.org/2000/svg">
<g filter="url(#filter0_d_7_206)">
<path d="M24.5817 44.9448C36.3241 44.9448 45.8433 35.4257 45.8433 23.6832C45.8433 11.9408 36.3241 2.42163 24.5817 2.42163C12.8392 2.42163 3.32007 11.9408 3.32007 23.6832C3.32007 35.4257 12.8392 44.9448 24.5817 44.9448Z" fill="url(#paint0_linear_7_206)"/>
<path d="M18.7761 35.3159C18.8673 36.0719 18.5864 36.4751 17.9168 36.5495H13.9114C13.5775 36.4875 13.2646 36.3418 13.0023 36.126C12.74 35.9103 12.5367 35.6316 12.4114 35.3159C10.8232 31.6484 10.0195 27.6893 10.0521 23.6927C10.0521 23.0607 10.0707 22.4359 10.1075 21.8183C10.2371 20.8583 10.6474 20.3423 11.3626 20.2463H16.3234C16.5166 20.2574 16.7054 20.3073 16.8789 20.393C17.0523 20.4788 17.2068 20.5986 17.333 20.7453C17.4591 20.8921 17.5543 21.0627 17.613 21.247C17.6717 21.4314 17.6926 21.6257 17.6746 21.8183C17.657 22.4359 17.6482 23.0607 17.6482 23.6927C17.6228 27.5955 18.0023 31.4905 18.7761 35.3159Z" fill="url(#paint1_linear_7_206)"/>
<path d="M40.3499 25.2C40.2908 25.7715 40.0486 26.3086 39.6593 26.7312C39.2701 27.1538 38.7545 27.4392 38.1898 27.5448H37.9065C38.7057 27.6552 39.0344 28.236 38.9096 29.3184L38.8689 29.5272C38.4489 31.0344 37.6689 31.8384 36.4809 31.9872H35.5522C36.2938 32.0808 36.5481 32.5728 36.3321 33.4848L36.2096 33.852C36.0505 34.3687 35.748 34.8296 35.3372 35.181C34.9263 35.5324 34.4241 35.7598 33.889 35.8368H23.1154C22.3954 35.8152 22.376 35.7984 20.8472 34.9752C20.5752 34.83 20.341 34.6229 20.1634 34.3708C19.9859 34.1186 19.8701 33.8283 19.8251 33.5232C19.4111 30.2637 19.2081 26.9809 19.2177 23.6952C19.2177 23.5752 19.2177 23.456 19.2177 23.3376C19.223 22.9745 19.318 22.6185 19.4943 22.3011C19.6706 21.9836 19.9228 21.7147 20.2282 21.5184C20.6362 21.1512 20.6361 21.1512 24.4449 14.4144C24.993 13.4316 25.3363 12.348 25.4539 11.2289C25.5714 10.1098 25.4609 8.97838 25.129 7.90317C25.141 7.55997 25.1864 7.42323 25.6088 7.33203C29.8952 8.53203 29.7035 11.7216 29.4491 15.7464C29.4384 15.9414 29.4667 16.1366 29.5323 16.3205C29.5978 16.5045 29.6992 16.6735 29.8308 16.8178C29.9624 16.9622 30.1213 17.0788 30.2984 17.1611C30.4755 17.2433 30.6675 17.2894 30.8627 17.2968H38.0914C40.1962 17.5824 40.3186 20.82 39.0778 21.7992C38.8974 21.9245 38.7052 22.0322 38.5042 22.1208H38.7441C40.7865 22.416 40.3473 25.176 40.3425 25.2024" fill="url(#paint2_linear_7_206)"/>
<path style="mix-blend-mode:screen" opacity="0.9" d="M10.7673 30.5019C9.56594 28.9814 8.69422 27.2276 8.20759 25.3519C7.72097 23.4762 7.63008 21.5198 7.9407 19.6071C8.25132 17.6944 8.95681 15.8672 10.012 14.2419C11.0672 12.6167 12.4489 11.2288 14.0696 10.1667C17.408 7.94738 21.3942 6.91129 25.3908 7.2241C29.3874 7.53692 33.1636 9.18057 36.1161 11.8923C31.4309 13.4771 26.9885 15.7047 22.9161 18.5115C18.19 21.7593 14.0768 25.8188 10.7673 30.5019Z" fill="url(#paint3_radial_7_206)"/>
<path style="mix-blend-mode:screen" opacity="0.6" d="M42.836 14.6713C40.0734 10.1891 35.6916 6.94218 30.5994 5.60377C25.5072 4.26536 20.0952 4.93817 15.4857 7.48273C10.8763 10.0273 7.42305 14.2483 5.84208 19.2705C4.2611 24.2927 4.67365 29.7308 6.99432 34.4569C5.53884 32.0955 4.57795 29.4631 4.16981 26.7193C3.76167 23.9755 3.91481 21.1775 4.61996 18.4946C5.3251 15.8118 6.56759 13.2999 8.27211 11.1114C9.97662 8.92293 12.1077 7.10325 14.5362 5.76264C16.9647 4.42202 19.6402 3.58839 22.4004 3.31225C25.1606 3.03611 27.948 3.3232 30.594 4.15614C33.2399 4.98908 35.6893 6.35056 37.7935 8.15802C39.8978 9.96548 41.6133 12.1813 42.836 14.6713Z" fill="url(#paint4_linear_7_206)"/>
</g>
<defs>
<filter id="filter0_d_7_206" x="0.920068" y="0.0216308" width="52.1232" height="52.1232" filterUnits="userSpaceOnUse" color-interpolation-filters="sRGB">
<feFlood flood-opacity="0" result="BackgroundImageFix"/>
<feColorMatrix in="SourceAlpha" type="matrix" values="0 0 0 0 0 0 0 0 0 0 0 0 0 0 0 0 0 0 127 0" result="hardAlpha"/>
<feOffset dx="2.4" dy="2.4"/>
<feGaussianBlur stdDeviation="2.4"/>
<feComposite in2="hardAlpha" operator="out"/>
<feColorMatrix type="matrix" values="0 0 0 0 0.470833 0 0 0 0 0.470833 0 0 0 0 0.470833 0 0 0 0.5 0"/>
<feBlend mode="multiply" in2="BackgroundImageFix" result="effect1_dropShadow_7_206"/>
<feBlend mode="normal" in="SourceGraphic" in2="effect1_dropShadow_7_206" result="shape"/>
</filter>
<linearGradient id="paint0_linear_7_206" x1="13.6532" y1="4.29265" x2="35.6377" y2="43.3289" gradientUnits="userSpaceOnUse">
<stop stop-color="#00BFFF"/>
<stop offset="0.996" stop-color="#7062ED"/>
</linearGradient>
<linearGradient id="paint1_linear_7_206" x1="10.1211" y1="14.7848" x2="29.5665" y2="30.383" gradientUnits="userSpaceOnUse">
<stop stop-color="white"/>
<stop offset="0.198" stop-color="#FCFBFD"/>
<stop offset="0.36" stop-color="#F6F1F8"/>
<stop offset="0.51" stop-color="#EAE0EF"/>
<stop offset="0.653" stop-color="#DAC8E3"/>
<stop offset="0.79" stop-color="#C5A8D4"/>
<stop offset="0.922" stop-color="#AC83C1"/>
<stop offset="1" stop-color="#9B69B5"/>
</linearGradient>
<linearGradient id="paint2_linear_7_206" x1="23.9167" y1="9.84045" x2="39.423" y2="33.711" gradientUnits="userSpaceOnUse">
<stop stop-color="white"/>
<stop offset="0.198" stop-color="#FCFBFD"/>
<stop offset="0.36" stop-color="#F6F1F8"/>
<stop offset="0.51" stop-color="#EAE0EF"/>
<stop offset="0.653" stop-color="#DAC8E3"/>
<stop offset="0.79" stop-color="#C5A8D4"/>
<stop offset="0.922" stop-color="#AC83C1"/>
<stop offset="1" stop-color="#9B69B5"/>
</linearGradient>
<radialGradient id="paint3_radial_7_206" cx="0" cy="0" r="1" gradientUnits="userSpaceOnUse" gradientTransform="translate(-422.787 -88.5062) scale(23.0336 20.7492)">
<stop stop-color="#9CDEFF"/>
<stop offset="1" stop-color="#4566FE"/>
</radialGradient>
<linearGradient id="paint4_linear_7_206" x1="35.8748" y1="4.9915" x2="10.1154" y2="33.5066" gradientUnits="userSpaceOnUse">
<stop stop-color="#231F20"/>
<stop offset="0.536" stop-color="white"/>
<stop offset="1" stop-color="#231F20"/>
</linearGradient>
</defs>
</svg>
