<svg width="107" height="108" viewBox="0 0 107 108" fill="none" xmlns="http://www.w3.org/2000/svg">
<path d="M53.5 107.5C83.0472 107.5 107 83.5472 107 54C107 24.4528 83.0472 0.5 53.5 0.5C23.9528 0.5 0 24.4528 0 54C0 83.5472 23.9528 107.5 53.5 107.5Z" fill="#F1F4F5"/>
<path d="M73.2106 60.0539C77.0984 60.0539 80.2501 56.9022 80.2501 53.0144C80.2501 49.1267 77.0984 45.975 73.2106 45.975C69.3228 45.975 66.1711 49.1267 66.1711 53.0144C66.1711 56.9022 69.3228 60.0539 73.2106 60.0539Z" fill="#99A1BE"/>
<path d="M53.5 60.0539C57.3878 60.0539 60.5395 56.9022 60.5395 53.0144C60.5395 49.1267 57.3878 45.975 53.5 45.975C49.6123 45.975 46.4606 49.1267 46.4606 53.0144C46.4606 56.9022 49.6123 60.0539 53.5 60.0539Z" fill="#99A1BE"/>
<path d="M33.7895 60.0539C37.6773 60.0539 40.8289 56.9022 40.8289 53.0144C40.8289 49.1267 37.6773 45.975 33.7895 45.975C29.9017 45.975 26.75 49.1267 26.75 53.0144C26.75 56.9022 29.9017 60.0539 33.7895 60.0539Z" fill="#99A1BE"/>
</svg>
