<svg width="46" height="59" viewBox="0 0 46 59" fill="none" xmlns="http://www.w3.org/2000/svg">
<path fill-rule="evenodd" clip-rule="evenodd" d="M44.5219 35.2609C42.1434 29.7917 42.2051 27.7337 42.3147 23.9936C42.3427 23.11 42.3708 22.15 42.3708 21.0491C42.3708 12.3095 36.3923 0 23.1041 0C9.81598 0 3.83744 12.3095 3.83744 21.0491C3.83744 22.1471 3.86552 23.11 3.8936 23.9936C4.00312 27.7337 4.06209 29.7917 1.65832 35.3343C0.63054 38.1056 0.754099 40.4982 2.0318 42.4476C5.0983 47.1388 13.972 47.7847 23.1041 47.7847C32.2362 47.7847 41.11 47.1388 44.1764 42.4476C45.457 40.4982 45.5805 38.1056 44.5219 35.2609Z" fill="#2D3F7B"/>
<path fill-rule="evenodd" clip-rule="evenodd" d="M30.6785 50.7565C26.0984 51.2879 21.1336 51.2849 15.4893 50.7506C14.644 50.6802 13.8072 51.1469 13.4197 51.9543C13.0293 52.7645 13.1529 53.7363 13.7286 54.4115C16.2559 57.3677 19.5807 59 23.0909 59H23.0965C26.6151 59 29.9484 57.3707 32.4813 54.4115C33.0626 53.7333 33.1834 52.7469 32.7846 51.9337C32.3831 51.1264 31.5575 50.6743 30.6785 50.7565Z" fill="#2D3F7B"/>
</svg>
