<svg width="97" height="97" viewBox="0 0 97 97" fill="none" xmlns="http://www.w3.org/2000/svg">
<path d="M48.8293 96.7C75.339 96.7 96.8293 75.2096 96.8293 48.7C96.8293 22.1903 75.339 0.699951 48.8293 0.699951C22.3197 0.699951 0.829346 22.1903 0.829346 48.7C0.829346 75.2096 22.3197 96.7 48.8293 96.7Z" fill="#C3E4FF" fill-opacity="0.28"/>
<path d="M65.2374 47.3181L53.0984 34.7157C52.9039 34.519 52.6555 34.3843 52.3845 34.3285C52.1135 34.2728 51.8322 34.2985 51.5758 34.4025C51.3195 34.5065 51.0996 34.684 50.944 34.9127C50.7884 35.1415 50.704 35.4111 50.7015 35.6878V41.744H50.2354C45.4087 41.7496 40.7812 43.6695 37.3681 47.0826C33.9551 50.4956 32.0352 55.1231 32.0295 59.9499V62.7516C32.0339 63.064 32.1439 63.3657 32.3418 63.6075C32.5396 63.8493 32.8135 64.017 33.1188 64.0832C33.2198 64.1085 33.3236 64.121 33.4277 64.1205C33.6936 64.1174 33.9535 64.0413 34.179 63.9004C34.4045 63.7594 34.5869 63.5592 34.7061 63.3215C35.9763 60.7552 37.9404 58.5962 40.3756 57.0898C42.8108 55.5834 45.6195 54.7898 48.483 54.7992H50.7015V60.8953C50.704 61.1719 50.7884 61.4416 50.944 61.6703C51.0996 61.8991 51.3195 62.0766 51.5758 62.1806C51.8322 62.2845 52.1135 62.3103 52.3845 62.2546C52.6555 62.1988 52.9039 62.0641 53.0984 61.8674L65.2348 49.265C65.4875 49.0041 65.629 48.6553 65.6295 48.2921C65.63 47.9289 65.4894 47.5797 65.2374 47.3181Z" fill="#1877F2"/>
</svg>
