<svg width="67" height="67" viewBox="0 0 67 67" fill="none" xmlns="http://www.w3.org/2000/svg">
<path fill-rule="evenodd" clip-rule="evenodd" d="M32.6999 44.6025C31.6703 45.0281 30.4931 45.4296 29.3949 45.4296C28.5437 45.4296 27.7441 45.1894 27.092 44.5373C26.6149 44.0602 25.1495 42.5982 25.1907 32.9405C25.2284 23.3344 26.6321 21.9341 27.092 21.4708C28.7119 19.8543 31.3923 20.956 32.5386 21.4331C35.3665 22.6034 46.4382 28.702 46.4382 33.0058C46.4382 37.3781 35.1263 43.5969 32.6999 44.6025ZM33.5476 0.0379639C8.84404 0.0379639 0.0855713 8.79643 0.0855713 33.5C0.0855713 58.2035 8.84404 66.962 33.5476 66.962C58.2546 66.962 67.0096 58.2035 67.0096 33.5C67.0096 8.79643 58.2546 0.0379639 33.5476 0.0379639Z" fill="#CFD7ED"/>
</svg>
