<svg width="32" height="30" viewBox="0 0 32 30" fill="none" xmlns="http://www.w3.org/2000/svg">
<path fill-rule="evenodd" clip-rule="evenodd" d="M23.6786 12.0286C22.9991 12.0286 22.441 11.4956 22.441 10.8388C22.441 10.182 22.9843 9.64896 23.6639 9.64896H23.6786C24.3582 9.64896 24.9098 10.182 24.9098 10.8388C24.9098 11.4956 24.3582 12.0286 23.6786 12.0286ZM15.6008 22.5688C12.0749 22.5688 9.20718 19.7957 9.20718 16.3881C9.20718 12.982 12.0749 10.2106 15.6008 10.2106C19.1268 10.2106 21.9945 12.982 21.9945 16.3881C21.9945 19.7957 19.1268 22.5688 15.6008 22.5688ZM24.8244 5.48617C24.547 5.40209 24.1432 5.226 23.8034 4.86588C23.6622 4.71676 23.4718 4.34395 23.288 3.98541C22.7922 3.01611 22.1143 1.68985 20.7502 1.1346C18.9971 0.423885 12.2669 0.420712 10.4564 1.13143C9.11033 1.66606 8.42418 2.99866 7.92352 3.97114C7.73475 4.33601 7.54105 4.71358 7.3966 4.86588C7.05845 5.22759 6.65464 5.40209 6.40349 5.47983C0.991467 6.92665 0 10.3264 0 16.4976C0 25.4196 2.25214 29.4 15.6008 29.4C28.9479 29.4 31.2 25.4196 31.2 16.4976C31.2 10.3264 30.2102 6.92665 24.8244 5.48617Z" fill="#63C48C"/>
<path fill-rule="evenodd" clip-rule="evenodd" d="M15.601 12.5894C13.4326 12.5894 11.6696 14.2932 11.6696 16.3889C11.6696 18.4846 13.4326 20.1884 15.601 20.1884C17.7695 20.1884 19.5324 18.4846 19.5324 16.3889C19.5324 14.2932 17.7695 12.5894 15.601 12.5894Z" fill="#63C48C"/>
</svg>
