<svg width="37" height="30" viewBox="0 0 37 30" fill="none" xmlns="http://www.w3.org/2000/svg">
<path fill-rule="evenodd" clip-rule="evenodd" d="M18.6647 10.5477C16.2098 10.5477 14.2127 12.5447 14.2127 14.9994C14.2127 17.4542 16.2098 19.4512 18.6647 19.4512C21.1195 19.4512 23.1167 17.4542 23.1167 14.9994C23.1167 12.5447 21.1195 10.5477 18.6647 10.5477Z" fill="#1877F2"/>
<path fill-rule="evenodd" clip-rule="evenodd" d="M18.6647 22.2203C14.6833 22.2203 11.444 18.9811 11.444 15C11.444 11.0188 14.6833 7.77967 18.6647 7.77967C22.646 7.77967 25.8853 11.0188 25.8853 15C25.8853 18.9811 22.646 22.2203 18.6647 22.2203ZM18.6647 0.599976C8.69379 0.599976 0.664673 8.47734 0.664673 15C0.664673 21.5226 8.69379 29.4 18.6647 29.4C28.6356 29.4 36.6647 21.5226 36.6647 15C36.6647 8.47734 28.6356 0.599976 18.6647 0.599976Z" fill="#1877F2"/>
</svg>
