<svg width="34" height="31" viewBox="0 0 34 31" fill="none" xmlns="http://www.w3.org/2000/svg">
<path d="M33.2374 13.3181L21.0984 0.71569C20.9039 0.518983 20.6555 0.384268 20.3845 0.328532C20.1135 0.272796 19.8322 0.298535 19.5758 0.402501C19.3195 0.506468 19.0996 0.684009 18.944 0.912739C18.7884 1.14147 18.704 1.41115 18.7015 1.68777V7.74397H18.2354C13.4087 7.74961 8.78117 9.66954 5.36812 13.0826C1.95508 16.4956 0.0351798 21.1231 0.029541 25.9499V28.7516C0.0338872 29.064 0.143948 29.3657 0.341761 29.6075C0.539574 29.8493 0.813462 30.017 1.1188 30.0832C1.21982 30.1085 1.32359 30.121 1.42772 30.1205C1.6936 30.1174 1.95351 30.0413 2.17899 29.9004C2.40448 29.7594 2.58686 29.5592 2.70611 29.3215C3.97626 26.7552 5.94039 24.5962 8.3756 23.0898C10.8108 21.5834 13.6195 20.7898 16.483 20.7992H18.7015V26.8953C18.704 27.1719 18.7884 27.4416 18.944 27.6703C19.0996 27.8991 19.3195 28.0766 19.5758 28.1806C19.8322 28.2845 20.1135 28.3103 20.3845 28.2546C20.6555 28.1988 20.9039 28.0641 21.0984 27.8674L33.2348 15.265C33.4875 15.0041 33.629 14.6553 33.6295 14.2921C33.63 13.9289 33.4894 13.5797 33.2374 13.3181Z" fill="#1877F2"/>
</svg>
