<svg width="42" height="30" viewBox="0 0 42 30" fill="none" xmlns="http://www.w3.org/2000/svg">
<path fill-rule="evenodd" clip-rule="evenodd" d="M39.9398 5.17693C38.4385 3.54784 33.8191 6.47633 31.2014 8.33815C31.6441 10.2581 31.8558 12.4884 31.8558 15.0097C31.8558 17.5115 31.6441 19.703 31.2206 21.623C33.3186 23.1163 36.7447 25.3078 38.7464 25.3078C39.2469 25.3078 39.6703 25.1721 39.9398 24.8618C41.7298 22.9418 41.7298 7.11633 39.9398 5.17693Z" fill="#F31954"/>
<path fill-rule="evenodd" clip-rule="evenodd" d="M14.7447 0.599976C4.21632 0.599976 0.4823 4.38179 0.4823 15.0097C0.4823 25.6376 4.21632 29.4 14.7447 29.4C25.2539 29.4 28.9687 25.6376 28.9687 15.0097C28.9687 4.38179 25.2539 0.599976 14.7447 0.599976Z" fill="#F31954"/>
</svg>
